<?xml version="1.0" encoding="iso-8859-1"?>
<!-- Generator: Adobe Illustrator 19.0.0, SVG Export Plug-In . SVG Version: 6.00 Build 0)  -->
<svg version="1.1" id="Layer_1" xmlns="http://www.w3.org/2000/svg" xmlns:xlink="http://www.w3.org/1999/xlink" x="0px" y="0px"
	 viewBox="0 0 512 512" style="enable-background:new 0 0 512 512;" xml:space="preserve">
<path style="fill:#C8FEFF;" d="M400.06,33.674l-54.124,444.809C343.697,496.919,326.668,512,308.098,512H203.902
	c-18.57,0-35.599-15.081-37.838-33.517L111.94,33.674h34.012L256,227.177L366.049,33.674
	C366.049,33.674,400.06,33.674,400.06,33.674z"/>
<path style="fill:#8E4238;" d="M366.049,33.674l-48.193,396.088c-8.891,19.606-114.821,19.606-123.712,0L145.951,33.674H366.049z"/>
<g>
	
		<rect x="236.423" y="190.295" transform="matrix(-0.9239 -0.3827 0.3827 -0.9239 447.072 553.9329)" style="fill:#C67741;" width="84.413" height="84.413"/>
	
		<rect x="179.756" y="101.753" transform="matrix(0.9239 -0.3827 0.3827 0.9239 -38.1953 95.9016)" style="fill:#C67741;" width="84.413" height="84.413"/>
</g>
<polygon style="fill:#F7CD95;" points="333.77,32.301 287.513,54.811 242.404,32.301 255.786,0 "/>
<polyline style="fill:#C67741;" points="301.469,110.285 223.485,77.984 242.404,32.301 333.77,32.301 "/>
<g>
</g>
<g>
</g>
<g>
</g>
<g>
</g>
<g>
</g>
<g>
</g>
<g>
</g>
<g>
</g>
<g>
</g>
<g>
</g>
<g>
</g>
<g>
</g>
<g>
</g>
<g>
</g>
<g>
</g>
</svg>
